<?xml version="1.0" encoding="iso-8859-1"?>
<!-- Uploaded to: SVG Repo, www.svgrepo.com, Generator: SVG Repo Mixer Tools -->
<svg version="1.1" id="Layer_1" xmlns="http://www.w3.org/2000/svg" xmlns:xlink="http://www.w3.org/1999/xlink" 
	 viewBox="0 0 505 505" xml:space="preserve">
<circle style="fill:#FFD05B;" cx="252.5" cy="252.5" r="252.5"/>
<path style="fill:#F9B54C;" d="M43.4,394.1C88.9,461,165.5,505,252.5,505s163.7-44,209.1-110.9H43.4z"/>
<polygon style="fill:#FFFFFF;" points="320.7,321.3 184.3,321.3 203.1,370.7 301.9,370.7 "/>
<g>
	<polygon style="fill:#E6E9EE;" points="311.6,345.2 320.7,321.3 184.3,321.3 193.4,345.2 	"/>
	<path style="fill:#E6E9EE;" d="M332.4,394.1H172.6c-1.7,0-3.1-1.4-3.1-3.1v-22.6c0-1.7,1.4-3.1,3.1-3.1h159.7
		c1.7,0,3.1,1.4,3.1,3.1V391C335.5,392.7,334.1,394.1,332.4,394.1z"/>
</g>
<path style="fill:#324A5E;" d="M415,289.8V99.7c0-0.5-0.4-0.9-0.9-0.9H90.9c-0.5,0-0.9,0.4-0.9,0.9v190.1H415z"/>
<rect x="113.7" y="122.6" style="fill:#84DBFF;" width="277.6" height="144.2"/>
<path style="fill:#FFFFFF;" d="M90,287.9V325c0,2.9,2.4,5.3,5.3,5.3h314.3c2.9,0,5.3-2.4,5.3-5.3v-37.1H90z"/>
<circle style="fill:#E6E9EE;" cx="252.5" cy="307.2" r="11.5"/>
<g>
	<rect x="238.1" y="141.9" style="fill:#FFFFFF;" width="17.4" height="105.5"/>
	<rect x="208.8" y="171.9" style="fill:#FFFFFF;" width="17.4" height="75.5"/>
	<rect x="179.6" y="193.4" style="fill:#FFFFFF;" width="17.4" height="54"/>
	<rect x="150.4" y="208.8" style="fill:#FFFFFF;" width="17.4" height="38.6"/>
	<path style="fill:#FFFFFF;" d="M317.1,248.3v-9.5c-11.8-1.2-22.5-5.9-31.9-14.1l9.5-11.3c7.3,6.3,14.7,10.1,22.4,11.3v-25.1
		c-9.8-2.3-16.9-5.4-21.4-9.2s-6.8-9.4-6.8-16.9s2.6-13.6,7.8-18.3c5.2-4.7,12-7.3,20.4-7.8v-6.5h8.3v6.6c9.5,0.7,18.5,3.9,26.9,9.7
		l-8.4,11.9c-5.7-4.1-11.9-6.6-18.5-7.5v24.3h0.4c9.9,2.3,17.2,5.5,21.9,9.5c4.7,4,7,9.7,7,17.3s-2.7,13.7-8,18.5
		c-5.4,4.8-12.4,7.3-21.2,7.8v9.3H317.1z M307.9,164.7c-2.2,1.9-3.3,4.4-3.3,7.3c0,2.9,0.9,5.2,2.6,6.9s5,3.3,9.8,4.9v-22.4
		C313.2,161.7,310.1,162.8,307.9,164.7z M335.2,221.5c2.4-2,3.6-4.5,3.6-7.5s-0.9-5.4-2.8-7.2s-5.4-3.4-10.6-5v23.3
		C329.5,224.7,332.8,223.5,335.2,221.5z"/>
</g>
</svg>