<svg xmlns="http://www.w3.org/2000/svg" width="46" height="46" viewBox="0 0 46 46" fill="none">
  <g clip-path="url(#clip0_36_216)">
    <path fill-rule="evenodd" clip-rule="evenodd" d="M26.1603 35.4115C30.3339 33.7442 35.5304 32.6765 41.75 32.2086C41.75 32.0821 41.75 24.8985 41.75 10.6579H41.75C41.75 10.1402 41.3303 9.72046 40.8125 9.72046C40.8046 9.72046 40.7967 9.72056 40.7888 9.72076C35.4842 9.85505 30.1796 11.101 24.875 13.4586C24.875 13.542 24.875 20.5695 24.875 34.5409H24.875C24.875 35.0587 25.2947 35.4784 25.8125 35.4784C25.9317 35.4784 26.0497 35.4557 26.1603 35.4115Z" fill="#6A6E87"/>
    <path opacity="0.3" fill-rule="evenodd" clip-rule="evenodd" d="M19.8397 35.4115C15.6662 33.7442 10.4696 32.6765 4.25 32.2086C4.25 32.0821 4.25 24.8985 4.25 10.6579H4.25004C4.25004 10.1402 4.66976 9.72046 5.1875 9.72046C5.19541 9.72046 5.20332 9.72056 5.21123 9.72076C10.5158 9.85505 15.8204 11.101 21.125 13.4586C21.125 13.542 21.125 20.5695 21.125 34.5409H21.125C21.125 35.0587 20.7053 35.4784 20.1875 35.4784C20.0684 35.4784 19.9503 35.4557 19.8397 35.4115Z" fill="#6A6E87"/>
  </g>
  <defs>
    <clipPath id="clip0_36_216">
      <rect width="45" height="45" fill="white" transform="translate(0.5 0.333496)"/>
    </clipPath>
  </defs>
</svg>