<svg xmlns="http://www.w3.org/2000/svg" width="46" height="46" viewBox="0 0 46 46" fill="none">
  <path opacity="0.3" d="M19.25 10.9792C19.25 9.42595 17.9908 8.16675 16.4375 8.16675C14.8842 8.16675 13.625 9.42595 13.625 10.9792V29.7292C13.625 31.2825 14.8842 32.5417 16.4375 32.5417C17.9908 32.5417 19.25 31.2825 19.25 29.7292V10.9792Z" fill="#6A6E87"/>
  <path opacity="0.3" d="M28.625 20.3542C28.625 18.8009 27.3658 17.5417 25.8125 17.5417C24.2592 17.5417 23 18.8009 23 20.3542V29.7292C23 31.2825 24.2592 32.5417 25.8125 32.5417C27.3658 32.5417 28.625 31.2825 28.625 29.7292V20.3542Z" fill="#6A6E87"/>
  <path d="M9.875 36.2917H38C39.0355 36.2917 39.875 37.1312 39.875 38.1667C39.875 39.2023 39.0355 40.0417 38 40.0417H8C6.96447 40.0417 6.125 39.2023 6.125 38.1667V8.16675C6.125 7.13121 6.96447 6.29175 8 6.29175C9.03553 6.29175 9.875 7.13121 9.875 8.16675V36.2917Z" fill="#6A6E87"/>
  <path opacity="0.3" d="M38 24.1042C38 22.5509 36.7408 21.2917 35.1875 21.2917C33.6342 21.2917 32.375 22.5509 32.375 24.1042V29.7292C32.375 31.2825 33.6342 32.5417 35.1875 32.5417C36.7408 32.5417 38 31.2825 38 29.7292V24.1042Z" fill="#6A6E87"/>
</svg>