<svg xmlns="http://www.w3.org/2000/svg" width="46" height="46" viewBox="0 0 46 46" fill="none">
  <path opacity="0.3" d="M28.625 41.9167C33.8027 41.9167 38 37.7194 38 32.5417C38 27.3641 33.8027 23.1667 28.625 23.1667C23.4473 23.1667 19.25 27.3641 19.25 32.5417C19.25 37.7194 23.4473 41.9167 28.625 41.9167Z" fill="#6A6E87"/>
  <path opacity="0.3" d="M17.375 41.9167C22.5527 41.9167 26.75 37.7194 26.75 32.5417C26.75 27.3641 22.5527 23.1667 17.375 23.1667C12.1973 23.1667 8 27.3641 8 32.5417C8 37.7194 12.1973 41.9167 17.375 41.9167Z" fill="#6A6E87"/>
  <path opacity="0.3" d="M13.625 30.6667C18.8027 30.6667 23 26.4694 23 21.2917C23 16.1141 18.8027 11.9167 13.625 11.9167C8.44733 11.9167 4.25 16.1141 4.25 21.2917C4.25 26.4694 8.44733 30.6667 13.625 30.6667Z" fill="#6A6E87"/>
  <path opacity="0.3" d="M32.375 30.6667C37.5527 30.6667 41.75 26.4694 41.75 21.2917C41.75 16.1141 37.5527 11.9167 32.375 11.9167C27.1973 11.9167 23 16.1141 23 21.2917C23 26.4694 27.1973 30.6667 32.375 30.6667Z" fill="#6A6E87"/>
  <path opacity="0.3" d="M23 23.1667C28.1777 23.1667 32.375 18.9694 32.375 13.7917C32.375 8.61408 28.1777 4.41675 23 4.41675C17.8223 4.41675 13.625 8.61408 13.625 13.7917C13.625 18.9694 17.8223 23.1667 23 23.1667Z" fill="#6A6E87"/>
</svg>