<svg xmlns="http://www.w3.org/2000/svg" width="47" height="27" viewBox="0 0 47 27" fill="none">
<g clip-path="url(#clip0_81_348)">
<path d="M15.1481 23.7251C14.1795 24.6737 12.6088 24.6724 11.6418 23.7221L2.38582 14.6258C1.42123 13.6779 1.42257 12.144 2.38882 11.1977L11.6448 2.13249C12.611 1.18615 14.1772 1.18484 15.1451 2.12955L24.4329 11.1947C25.4032 12.1417 25.4045 13.6801 24.4359 14.6288L15.1481 23.7251Z" fill="#6A6E87"/>
<path d="M27.9408 23.7211C26.9739 24.6714 25.403 24.6727 24.4344 23.7241L15.1466 14.6278C14.178 13.6791 14.1794 12.1407 15.1497 11.1937L24.4374 2.12857C25.4053 1.18386 26.9715 1.18518 27.9377 2.13151L37.1938 11.1967C38.16 12.143 38.1614 13.6769 37.1968 14.6248L27.9408 23.7211Z" fill="white"/>
<path d="M37.4248 23.7228C36.4571 24.6721 34.8865 24.6721 33.9187 23.7228L24.6452 14.6262C23.6785 13.6779 23.6798 12.1415 24.6482 11.1948L33.9218 2.12942C34.8888 1.18407 36.4548 1.18407 37.4219 2.12942L46.6953 11.1948C47.6637 12.1415 47.6651 13.6779 46.6983 14.6262L37.4248 23.7228Z" fill="#6A6E87"/>
</g>
<defs>
<clipPath id="clip0_81_348">
<rect width="47" height="26" fill="white" transform="translate(0.217941 0.78125)"/>
</clipPath>
</defs>
</svg>