<svg xmlns="http://www.w3.org/2000/svg" width="47" height="46" viewBox="0 0 47 46" fill="none">
  <g clip-path="url(#clip0_36_536)">
    <path opacity="0.4" d="M45.6309 22.7437C45.6309 35.1084 35.6079 45.1314 23.2432 45.1314C10.8784 45.1314 0.855469 35.1084 0.855469 22.7437C0.855469 10.3812 10.8784 0.355957 23.2432 0.355957C35.6079 0.355957 45.6309 10.3812 45.6309 22.7437Z" fill="white"/>
    <path d="M31.8863 15.3668L28.2595 26.8293C28.1252 27.2994 27.7446 27.68 27.2744 27.8166L15.8567 31.3964C15.0955 31.6449 14.3567 30.9038 14.603 30.1427L18.185 18.6578C18.3194 18.1876 18.6999 17.8294 19.1701 17.6727L30.6326 14.0907C31.4162 13.8444 32.1326 14.5832 31.8863 15.3668Z" fill="white"/>
  </g>
  <defs>
    <clipPath id="clip0_36_536">
      <rect width="46" height="46" fill="white" transform="translate(0.5)"/>
    </clipPath>
  </defs>
</svg>