<svg width="211" height="207" viewBox="0 0 211 207" fill="none" xmlns="http://www.w3.org/2000/svg">
<ellipse cx="105.224" cy="103.146" rx="85.7956" ry="82.772" transform="rotate(-15.935 105.224 103.146)" fill="#1E1D1D"/>
<path d="M69.682 147.168C68.645 147.464 67.6413 147.509 66.6708 147.304C65.7073 147.087 64.8698 146.65 64.1584 145.993C63.4538 145.325 62.9576 144.486 62.6699 143.478C62.3821 142.47 62.3622 141.501 62.6102 140.571C62.8651 139.628 63.3456 138.815 64.0518 138.131C64.7649 137.435 65.6448 136.937 66.6915 136.639C67.5734 136.387 68.4124 136.315 69.2084 136.423C70.0141 136.528 70.7423 136.803 71.3929 137.246L70.2795 139.073C69.3645 138.475 68.3982 138.321 67.3806 138.611C66.7506 138.791 66.2286 139.092 65.8146 139.514C65.3978 139.927 65.1195 140.42 64.9795 140.995C64.8493 141.567 64.8741 142.168 65.054 142.798C65.2338 143.427 65.53 143.951 65.9425 144.368C66.3647 144.782 66.863 145.059 67.4375 145.199C68.0093 145.329 68.6101 145.304 69.24 145.124C70.2577 144.834 70.9957 144.188 71.4541 143.187L73.3644 144.151C73.0486 144.88 72.5764 145.503 71.9478 146.018C71.3192 146.532 70.5639 146.916 69.682 147.168ZM80.1888 144.168C79.1324 144.469 78.1128 144.514 77.1299 144.302C76.1567 144.087 75.3143 143.652 74.6028 142.996C73.8983 142.327 73.4035 141.493 73.1185 140.495C72.8335 139.497 72.815 138.532 73.063 137.602C73.3179 136.659 73.8019 135.84 74.515 135.144C75.2378 134.445 76.1274 133.944 77.1837 133.643C78.2401 133.341 79.2549 133.298 80.2281 133.513C81.2013 133.727 82.045 134.168 82.7593 134.834C83.4708 135.49 83.969 136.317 84.254 137.316C84.539 138.314 84.5541 139.284 84.2992 140.227C84.0415 141.16 83.5561 141.975 82.843 142.671C82.1299 143.367 81.2452 143.866 80.1888 144.168ZM79.616 142.162C80.2169 141.99 80.7209 141.699 81.128 141.29C81.5323 140.87 81.7996 140.375 81.9298 139.803C82.0697 139.228 82.0498 138.626 81.8699 137.996C81.6901 137.366 81.389 136.844 80.9669 136.43C80.5544 136.014 80.0671 135.739 79.5051 135.606C78.9402 135.463 78.3574 135.477 77.7565 135.649C77.1556 135.82 76.653 136.116 76.2487 136.535C75.8416 136.945 75.5681 137.437 75.4282 138.012C75.2979 138.583 75.3227 139.184 75.5026 139.814C75.6825 140.444 75.9786 140.968 76.3911 141.384C76.8133 141.798 77.3068 142.077 77.8716 142.219C78.4337 142.352 79.0151 142.333 79.616 142.162ZM93.9041 129.057L96.8096 139.234L94.8761 139.786L88.0386 135.056L89.8026 141.234L87.4766 141.898L84.5712 131.722L86.5192 131.166L93.3422 135.9L91.5782 129.722L93.9041 129.057ZM98.9675 129.687L95.7112 130.617L95.1633 128.698L104.031 126.166L104.579 128.085L101.323 129.015L103.68 137.272L101.325 137.944L98.9675 129.687ZM113.772 132.032L109.047 133.381L108.768 135.819L106.355 136.508L107.985 125.037L110.311 124.373L117.767 133.25L115.295 133.956L113.772 132.032ZM112.52 130.456L109.794 127.021L109.292 131.377L112.52 130.456ZM123.6 131.773C122.563 132.069 121.56 132.115 120.589 131.909C119.626 131.692 118.788 131.255 118.077 130.599C117.372 129.93 116.876 129.092 116.588 128.084C116.3 127.076 116.281 126.107 116.529 125.176C116.783 124.234 117.264 123.42 117.97 122.736C118.683 122.04 119.563 121.543 120.61 121.244C121.492 120.992 122.331 120.92 123.127 121.028C123.933 121.134 124.661 121.408 125.311 121.851L124.198 123.678C123.283 123.08 122.317 122.926 121.299 123.217C120.669 123.397 120.147 123.698 119.733 124.12C119.316 124.532 119.038 125.026 118.898 125.6C118.768 126.172 118.792 126.773 118.972 127.403C119.152 128.033 119.448 128.556 119.861 128.973C120.283 129.387 120.781 129.664 121.356 129.804C121.928 129.934 122.528 129.909 123.158 129.729C124.176 129.439 124.914 128.793 125.372 127.792L127.283 128.756C126.967 129.486 126.495 130.108 125.866 130.623C125.238 131.138 124.482 131.521 123.6 131.773ZM128.993 121.114L125.737 122.044L125.189 120.125L134.057 117.593L134.605 119.512L131.348 120.442L133.706 128.699L131.351 129.371L128.993 121.114ZM151.606 123.588L149.849 117.487L148.29 123.372L147.229 123.675L142.85 119.626L144.556 125.601L142.346 126.232L139.441 116.056L141.389 115.5L147.003 120.736L148.948 113.341L150.882 112.789L153.816 122.957L151.606 123.588ZM163.57 118.128L164.11 120.018L156.23 122.268L153.325 112.092L161.015 109.896L161.555 111.786L156.205 113.313L156.836 115.523L161.561 114.174L162.084 116.006L157.359 117.355L158.031 119.71L163.57 118.128Z" fill="#D5D5D3"/>
<path d="M107.582 77.1477L93.0412 103.311L86.5005 99.6754L101.042 73.5124V73.5124L100.315 73.72L83.597 78.4932L81.5217 71.2246L111.323 62.7158L119.832 92.5171L112.563 94.5924L107.79 77.8746L107.582 77.1477V77.1477Z" stroke="#EFEFED" stroke-width="1.25497"/>
</svg>
