<svg xmlns="http://www.w3.org/2000/svg" width="46" height="45" viewBox="0 0 46 45" fill="none">
  <g clip-path="url(#clip0_36_163)">
    <path opacity="0.3" d="M25.8125 5.625C25.8125 4.58947 24.973 3.75 23.9375 3.75C22.902 3.75 22.0625 4.58947 22.0625 5.625V9.375C22.0625 10.4105 22.902 11.25 23.9375 11.25C24.973 11.25 25.8125 10.4105 25.8125 9.375V5.625Z" fill="#6A6E87"/>
    <path opacity="0.3" d="M25.8125 31.875C25.8125 30.8395 24.973 30 23.9375 30C22.902 30 22.0625 30.8395 22.0625 31.875V37.5C22.0625 38.5355 22.902 39.375 23.9375 39.375C24.973 39.375 25.8125 38.5355 25.8125 37.5V31.875Z" fill="#6A6E87"/>
    <path fill-rule="evenodd" clip-rule="evenodd" d="M29.5502 15.0825C29.0277 14.4175 28.3448 13.889 27.5017 13.4972C26.6586 13.1053 25.8452 12.9094 25.0614 12.9094C24.6577 12.9094 24.248 12.945 23.8323 13.0162C23.4167 13.0875 23.0427 13.224 22.7102 13.4259C22.3777 13.6278 22.0986 13.889 21.873 14.2097C21.6473 14.5303 21.5345 14.94 21.5345 15.4387C21.5345 15.8662 21.6236 16.2225 21.8017 16.5075C21.9798 16.7925 22.2411 17.0419 22.5855 17.2556C22.9298 17.4694 23.3395 17.6653 23.8145 17.8434C24.2895 18.0215 24.8239 18.2056 25.4177 18.3956C26.2727 18.6806 27.1633 18.9953 28.0895 19.3397C29.0158 19.684 29.8589 20.1412 30.6189 20.7112C31.3789 21.2812 32.0083 21.9878 32.507 22.8309C33.0058 23.674 33.2552 24.725 33.2552 25.9837C33.2552 27.4325 32.988 28.6853 32.4536 29.7422C31.9192 30.799 31.2008 31.6719 30.2983 32.3606C29.3958 33.0494 28.3627 33.56 27.1989 33.8925C26.0352 34.225 24.8358 34.3912 23.6008 34.3912C21.7958 34.3912 20.0502 34.0765 18.3639 33.4472C16.6776 32.8178 15.2764 31.9212 14.1602 30.7575L18.1502 26.6962C18.7677 27.4562 19.5811 28.0915 20.5905 28.6022C21.5999 29.1128 22.6033 29.3681 23.6008 29.3681C24.052 29.3681 24.4914 29.3206 24.9189 29.2256C25.3464 29.1306 25.7205 28.9762 26.0411 28.7625C26.3617 28.5487 26.617 28.2637 26.807 27.9075C26.997 27.5512 27.092 27.1237 27.092 26.625C27.092 26.15 26.9733 25.7462 26.7358 25.4137C26.4983 25.0812 26.1598 24.7784 25.7205 24.5053C25.2811 24.2322 24.7348 23.9828 24.0817 23.7572C23.4286 23.5315 22.6864 23.2881 21.8552 23.0269C21.0477 22.7656 20.258 22.4569 19.4861 22.1006C18.7142 21.7444 18.0255 21.2872 17.4198 20.729C16.8142 20.1709 16.3273 19.494 15.9592 18.6984C15.5911 17.9028 15.407 16.935 15.407 15.795C15.407 14.3937 15.692 13.1944 16.262 12.1969C16.832 11.1994 17.5802 10.38 18.5064 9.73873C19.4327 9.09748 20.4777 8.62842 21.6414 8.33154C22.8052 8.03467 23.9808 7.88623 25.1683 7.88623C26.5933 7.88623 28.048 8.14748 29.5323 8.66998C31.0167 9.19248 32.317 9.96435 33.4333 10.9856L29.5502 15.0825Z" fill="#6A6E87"/>
  </g>
  <defs>
    <clipPath id="clip0_36_163">
      <rect width="45" height="45" fill="white" transform="translate(0.5)"/>
    </clipPath>
  </defs>
</svg>