<svg xmlns="http://www.w3.org/2000/svg" width="53" height="52" viewBox="0 0 53 52" fill="none">
<g clip-path="url(#clip0_36_525)">
<path d="M51.9875 25.7437C51.9875 39.973 40.473 51.4875 26.2437 51.4875C12.0145 51.4875 0.5 39.973 0.5 25.7437C0.5 11.5145 12.0145 0 26.2437 0C29.2862 0 32.235 0.514875 34.9498 1.49782C44.8728 5.05513 51.9875 14.5569 51.9875 25.7437Z" fill="white" fill-opacity="0.4"/>
<path d="M51.4719 20.5483C49.6465 11.7019 43.2808 4.49361 34.9491 1.49798C34.9023 1.49798 34.8555 1.45117 34.8555 1.45117L34.9491 6.41269C34.9491 7.67647 34.2002 8.84664 33.0301 9.36152C30.4557 10.4849 27.8813 9.87639 26.8048 12.8252C25.9154 15.0251 28.2558 21.0632 31.111 21.0632C34.7151 21.0632 36.447 13.8082 37.5235 13.8082C38.2256 13.8082 39.3022 16.0081 40.566 17.6463C41.4085 18.7697 42.7191 19.3782 44.1233 19.3782H46.5104L51.4719 20.5483Z" fill="white"/>
<path d="M30.8286 31.3604C29.518 33.1858 36.3986 38.7558 38.6921 37.6793C42.5771 35.8538 45.1046 32.0625 45.1046 30.6583C45.1046 29.254 43.2792 26.5393 37.0539 30.7519C35.322 32.0156 32.186 29.4881 30.8286 31.3604Z" fill="white"/>
<path d="M20.3929 26.2586C21.7503 24.9012 22.1715 22.7949 21.4694 21.5779C19.2227 17.5057 13.8867 19.6589 13.3719 23.9183C13.091 26.4927 11.5464 29.1138 10.2358 30.4712C8.92522 31.7818 6.35085 31.0797 5.64875 29.1606C4.85303 27.0075 7.61463 26.2118 7.19337 23.4502C7.09976 22.7013 6.30404 22.3268 5.3211 22.1864L0.687227 22.3737C0.593613 23.4502 0.5 24.5736 0.5 25.7437C0.5 38.0539 9.11245 48.3514 20.6737 50.879V46.2919C20.6737 46.2919 20.6737 46.2919 19.5036 45.1218C18.3334 43.9516 20.7205 41.9857 21.3758 39.5049C23.2013 32.4839 17.1164 32.2031 16.9292 30.6585C16.742 28.9266 19.0355 27.616 20.3929 26.2586Z" fill="white"/>
</g>
<defs>
<clipPath id="clip0_36_525">
<rect width="52" height="52" fill="white" transform="translate(0.5)"/>
</clipPath>
</defs>
</svg>