<svg width="124" height="19" viewBox="0 0 124 19" fill="none" xmlns="http://www.w3.org/2000/svg">
<path d="M5.589 17.7002L0.483 0.910195H4.37L8.418 15.0782L7.544 14.6412H9.89L8.97 15.0782L12.719 0.910195H16.491L11.73 17.7002H5.589ZM18.9206 17.7002V5.09619H22.6006V17.7002H18.9206ZM17.2416 7.8102V5.09619H22.6006V7.8102H17.2416ZM20.3466 3.85419C19.6566 3.85419 19.1429 3.67786 18.8056 3.3252C18.4836 2.95719 18.3226 2.49719 18.3226 1.94519C18.3226 1.37786 18.4836 0.917861 18.8056 0.565194C19.1429 0.197194 19.6566 0.0131941 20.3466 0.0131941C21.0366 0.0131941 21.5426 0.197194 21.8646 0.565194C22.2019 0.917861 22.3706 1.37786 22.3706 1.94519C22.3706 2.49719 22.2019 2.95719 21.8646 3.3252C21.5426 3.67786 21.0366 3.85419 20.3466 3.85419ZM31.7312 17.8612C30.4585 17.8612 29.4312 17.7079 28.6492 17.4012C27.8672 17.0792 27.2922 16.5502 26.9242 15.8142C26.5715 15.0629 26.3952 14.0509 26.3952 12.7782V1.69219H29.8222V12.9162C29.8222 13.5142 29.9755 13.9742 30.2822 14.2962C30.6042 14.6029 31.0565 14.7562 31.6392 14.7562H33.5022V17.8612H31.7312ZM24.4862 7.78719V5.09619H33.5022V7.78719H24.4862ZM41.7039 17.8612C40.4312 17.8612 39.4039 17.7079 38.6219 17.4012C37.8399 17.0792 37.2649 16.5502 36.8969 15.8142C36.5442 15.0629 36.3679 14.0509 36.3679 12.7782V1.69219H39.7949V12.9162C39.7949 13.5142 39.9482 13.9742 40.2549 14.2962C40.5769 14.6029 41.0292 14.7562 41.6119 14.7562H43.4749V17.8612H41.7039ZM34.4589 7.78719V5.09619H43.4749V7.78719H34.4589ZM53.5176 17.7002V13.9742H52.8966V9.92619C52.8966 9.28219 52.7433 8.79919 52.4366 8.47719C52.1299 8.15519 51.6393 7.99419 50.9646 7.99419C50.6273 7.99419 50.1826 8.00186 49.6306 8.01719C49.0786 8.03253 48.5113 8.05553 47.9286 8.0862C47.3459 8.11686 46.8169 8.14753 46.3416 8.17819V5.07319C46.6943 5.04253 47.1083 5.01186 47.5836 4.98119C48.0589 4.95053 48.5496 4.92753 49.0556 4.91219C49.5616 4.89686 50.0369 4.88919 50.4816 4.88919C51.7696 4.88919 52.8506 5.07319 53.7246 5.44119C54.6139 5.80919 55.2886 6.36886 55.7486 7.1202C56.2086 7.85619 56.4386 8.80686 56.4386 9.97219V17.7002H53.5176ZM49.4926 18.0222C48.5879 18.0222 47.7906 17.8612 47.1006 17.5392C46.4259 17.2172 45.8969 16.7572 45.5136 16.1592C45.1303 15.5459 44.9386 14.8175 44.9386 13.9742C44.9386 13.0542 45.1763 12.3029 45.6516 11.7202C46.1269 11.1222 46.7939 10.6852 47.6526 10.4092C48.5113 10.1179 49.5003 9.97219 50.6196 9.97219H53.3106V12.0192H50.5966C49.9526 12.0192 49.4543 12.1802 49.1016 12.5022C48.7643 12.8089 48.5956 13.2305 48.5956 13.7672C48.5956 14.2732 48.7643 14.6872 49.1016 15.0092C49.4543 15.3159 49.9526 15.4692 50.5966 15.4692C51.0106 15.4692 51.3786 15.4002 51.7006 15.2622C52.0379 15.1089 52.3139 14.8559 52.5286 14.5032C52.7433 14.1505 52.8659 13.6599 52.8966 13.0312L53.7706 13.9512C53.6939 14.8252 53.4793 15.5612 53.1266 16.1592C52.7893 16.7572 52.3139 17.2172 51.7006 17.5392C51.1026 17.8612 50.3666 18.0222 49.4926 18.0222ZM64.5969 17.7002V0.910195H68.3689V17.7002H64.5969ZM67.9089 10.9382V7.8102H74.3949V10.9382H67.9089ZM67.9089 4.03819V0.910195H74.6709V4.03819H67.9089ZM77.5558 17.7002V0.910195H81.2588V17.7002H77.5558ZM76.0608 3.62419V0.910195H81.2588V3.62419H76.0608ZM90.7907 18.1372C89.6867 18.1372 88.7054 17.9685 87.8467 17.6312C86.988 17.2785 86.2597 16.8032 85.6617 16.2052C85.079 15.6072 84.6344 14.9249 84.3277 14.1582C84.021 13.3762 83.8677 12.5559 83.8677 11.6972V11.1682C83.8677 10.2942 84.021 9.46619 84.3277 8.68419C84.6497 7.88686 85.1097 7.18919 85.7077 6.5912C86.321 5.9932 87.057 5.52553 87.9157 5.18819C88.7744 4.83553 89.7327 4.65919 90.7907 4.65919C91.8794 4.65919 92.8454 4.83553 93.6887 5.18819C94.5474 5.52553 95.2757 5.9932 95.8737 6.5912C96.4717 7.18919 96.9317 7.88686 97.2537 8.68419C97.5757 9.46619 97.7367 10.2942 97.7367 11.1682V11.6972C97.7367 12.5559 97.5834 13.3762 97.2767 14.1582C96.97 14.9249 96.5177 15.6072 95.9197 16.2052C95.337 16.8032 94.6164 17.2785 93.7577 17.6312C92.899 17.9685 91.91 18.1372 90.7907 18.1372ZM90.7907 15.0322C91.5114 15.0322 92.1094 14.8789 92.5847 14.5722C93.06 14.2655 93.4204 13.8362 93.6657 13.2842C93.9264 12.7322 94.0567 12.1189 94.0567 11.4442C94.0567 10.7235 93.9264 10.0949 93.6657 9.5582C93.405 9.0062 93.0294 8.56919 92.5387 8.2472C92.0634 7.9252 91.4807 7.7642 90.7907 7.7642C90.116 7.7642 89.5334 7.9252 89.0427 8.2472C88.552 8.56919 88.1764 9.0062 87.9157 9.5582C87.6704 10.0949 87.5477 10.7235 87.5477 11.4442C87.5477 12.1189 87.6704 12.7322 87.9157 13.2842C88.161 13.8362 88.529 14.2655 89.0197 14.5722C89.5104 14.8789 90.1007 15.0322 90.7907 15.0322ZM104.636 17.7002L106.936 5.51019H110.961L113.629 17.7002H110.777L108.04 5.60219H109.673L107.212 17.7002H104.636ZM103.762 17.7002L103.739 14.6412H106.269L106.292 17.7002H103.762ZM102.106 17.7002L98.725 5.09619H102.336L105.487 17.7002H102.106ZM111.72 17.7002L111.743 14.6412H114.273V17.7002H111.72ZM112.755 17.7002L115.561 5.09619H118.942L115.906 17.7002H112.755ZM119.81 17.7002V13.5832H123.858V17.7002H119.81Z" fill="white"/>
</svg>
