<svg width="54" height="54" viewBox="0 0 54 54" fill="none" xmlns="http://www.w3.org/2000/svg">
<rect width="54" height="54" rx="27" fill="url(#paint0_linear_36_418)"/>
<path d="M20.6062 36.5V34.0256L27.1708 27.5902C27.7987 26.9562 28.3219 26.393 28.7404 25.9006C29.159 25.4081 29.4729 24.9311 29.6822 24.4695C29.8915 24.0078 29.9961 23.5154 29.9961 22.9922C29.9961 22.3951 29.8607 21.8842 29.5898 21.4595C29.319 21.0286 28.9466 20.6963 28.4727 20.4624C27.9987 20.2285 27.4601 20.1115 26.8569 20.1115C26.2352 20.1115 25.6905 20.2408 25.2227 20.4993C24.7549 20.7517 24.3917 21.1117 24.1332 21.5795C23.8808 22.0473 23.7546 22.6044 23.7546 23.2507H20.4954C20.4954 22.0504 20.7693 21.0071 21.3171 20.1207C21.8649 19.2344 22.619 18.5481 23.5792 18.0618C24.5456 17.5755 25.6535 17.3324 26.9031 17.3324C28.171 17.3324 29.2852 17.5694 30.2454 18.0433C31.2056 18.5173 31.9504 19.1667 32.4798 19.9915C33.0153 20.8163 33.283 21.758 33.283 22.8168C33.283 23.5246 33.1476 24.2202 32.8768 24.9034C32.6059 25.5866 32.1289 26.3437 31.4457 27.1747C30.7686 28.0057 29.8176 29.0121 28.5927 30.1939L25.3335 33.5085V33.6378H33.5692V36.5H20.6062Z" fill="white"/>
<rect x="1.34749" y="1.34749" width="51.305" height="51.305" rx="25.6525" stroke="url(#paint1_angular_36_418)" stroke-opacity="0.5" stroke-width="2.69498"/>
<defs>
<linearGradient id="paint0_linear_36_418" x1="3.13043" y1="-30.8571" x2="74.2949" y2="-9.20879" gradientUnits="userSpaceOnUse">
<stop stop-color="#151515"/>
<stop offset="0.515625" stop-color="#09090A"/>
<stop offset="1" stop-color="#151515"/>
</linearGradient>
<radialGradient id="paint1_angular_36_418" cx="0" cy="0" r="1" gradientUnits="userSpaceOnUse" gradientTransform="translate(20.25 16.8268) rotate(79.7082) scale(37.7811 41.0606)">
<stop offset="0.140625" stop-color="white" stop-opacity="0"/>
<stop offset="0.432292" stop-color="white"/>
<stop offset="0.760417" stop-color="white" stop-opacity="0"/>
<stop offset="1" stop-color="white"/>
</radialGradient>
</defs>
</svg>
