<svg width="54" height="54" viewBox="0 0 54 54" fill="none" xmlns="http://www.w3.org/2000/svg">
<rect width="54" height="54" rx="27" fill="url(#paint0_linear_36_426)"/>
<path d="M26.9988 36.7585C25.6693 36.7585 24.4875 36.5308 23.4534 36.0753C22.4255 35.6198 21.613 34.9858 21.0159 34.1733C20.4188 33.3608 20.1018 32.4221 20.0649 31.3572H23.5365C23.5673 31.8681 23.7365 32.3144 24.0443 32.696C24.3521 33.0715 24.7614 33.3639 25.2723 33.5732C25.7832 33.7824 26.3556 33.8871 26.9896 33.8871C27.6667 33.8871 28.2668 33.7701 28.79 33.5362C29.3132 33.2962 29.7226 32.9638 30.018 32.5391C30.3135 32.1143 30.4581 31.625 30.452 31.071C30.4581 30.4986 30.3104 29.9938 30.0088 29.5568C29.7072 29.1198 29.2702 28.7782 28.6977 28.532C28.1314 28.2857 27.4482 28.1626 26.648 28.1626H24.9768V25.522H26.648C27.3066 25.522 27.8821 25.4081 28.3746 25.1804C28.8731 24.9527 29.264 24.6326 29.5471 24.2202C29.8303 23.8016 29.9688 23.3184 29.9626 22.7706C29.9688 22.2351 29.8488 21.7704 29.6025 21.3764C29.3625 20.9763 29.0209 20.6655 28.5777 20.4439C28.1407 20.2223 27.6267 20.1115 27.0358 20.1115C26.4572 20.1115 25.9217 20.2161 25.4292 20.4254C24.9368 20.6347 24.5398 20.9332 24.2382 21.321C23.9366 21.7027 23.7765 22.1581 23.7581 22.6875H20.4619C20.4865 21.6288 20.7912 20.6993 21.376 19.8991C21.9669 19.0928 22.7548 18.465 23.7396 18.0156C24.7245 17.5601 25.8293 17.3324 27.0542 17.3324C28.3161 17.3324 29.4117 17.5694 30.3412 18.0433C31.2768 18.5111 32 19.142 32.5109 19.9361C33.0218 20.7301 33.2773 21.6072 33.2773 22.5675C33.2834 23.6323 32.9695 24.5249 32.3355 25.245C31.7077 25.9652 30.8828 26.4361 29.8611 26.6577V26.8054C31.1906 26.9901 32.2093 27.4825 32.9172 28.2827C33.6312 29.0767 33.9851 30.0646 33.979 31.2464C33.979 32.3052 33.6774 33.2531 33.0741 34.0902C32.4771 34.9212 31.6523 35.5736 30.5997 36.0476C29.5533 36.5215 28.353 36.7585 26.9988 36.7585Z" fill="white"/>
<rect x="1.34749" y="1.34749" width="51.305" height="51.305" rx="25.6525" stroke="url(#paint1_angular_36_426)" stroke-opacity="0.5" stroke-width="2.69498"/>
<defs>
<linearGradient id="paint0_linear_36_426" x1="3.13043" y1="-30.8571" x2="74.2949" y2="-9.20879" gradientUnits="userSpaceOnUse">
<stop stop-color="#151515"/>
<stop offset="0.515625" stop-color="#09090A"/>
<stop offset="1" stop-color="#151515"/>
</linearGradient>
<radialGradient id="paint1_angular_36_426" cx="0" cy="0" r="1" gradientUnits="userSpaceOnUse" gradientTransform="translate(20.25 16.8268) rotate(79.7082) scale(37.7811 41.0606)">
<stop offset="0.140625" stop-color="white" stop-opacity="0"/>
<stop offset="0.432292" stop-color="white"/>
<stop offset="0.760417" stop-color="white" stop-opacity="0"/>
<stop offset="1" stop-color="white"/>
</radialGradient>
</defs>
</svg>
