<svg xmlns="http://www.w3.org/2000/svg" width="46" height="45" viewBox="0 0 46 45" fill="none">
<g clip-path="url(#clip0_36_545)">
<path d="M19.7621 38.8179C30.2103 38.8179 38.6804 30.2947 38.6804 19.7808C38.6804 9.26685 30.2103 0.743652 19.7621 0.743652C9.31376 0.743652 0.84375 9.26685 0.84375 19.7808C0.84375 30.2947 9.31376 38.8179 19.7621 38.8179Z" fill="white"/>
<path opacity="0.4" d="M41.9265 44.6452C41.1916 44.6214 40.4928 44.3191 39.9701 43.7987L35.49 38.562C34.5295 37.6836 34.4509 36.1908 35.3139 35.2152C35.7178 34.8065 36.267 34.5767 36.8399 34.5767C37.4127 34.5767 37.9619 34.8065 38.3659 35.2152L44.0003 39.7235C44.8119 40.5542 45.0623 41.7874 44.6397 42.8719C44.217 43.9564 43.2003 44.6896 42.0439 44.7437L41.9265 44.6452Z" fill="white"/>
</g>
<defs>
<clipPath id="clip0_36_545">
<rect width="45" height="45" fill="white" transform="translate(0.5)"/>
</clipPath>
</defs>
</svg>