<svg xmlns="http://www.w3.org/2000/svg" width="46" height="45" viewBox="0 0 46 45" fill="none">
<path opacity="0.3" d="M36.125 20.625H39.875C40.9105 20.625 41.75 21.4645 41.75 22.5C41.75 23.5355 40.9105 24.375 39.875 24.375H36.125C35.0895 24.375 34.25 23.5355 34.25 22.5C34.25 21.4645 35.0895 20.625 36.125 20.625ZM6.125 20.625H9.875C10.9105 20.625 11.75 21.4645 11.75 22.5C11.75 23.5355 10.9105 24.375 9.875 24.375H6.125C5.08947 24.375 4.25 23.5355 4.25 22.5C4.25 21.4645 5.08947 20.625 6.125 20.625ZM23 3.75C24.0355 3.75 24.875 4.58947 24.875 5.625V9.375C24.875 10.4105 24.0355 11.25 23 11.25C21.9645 11.25 21.125 10.4105 21.125 9.375V5.625C21.125 4.58947 21.9645 3.75 23 3.75ZM23 33.75C24.0355 33.75 24.875 34.5895 24.875 35.625V39.375C24.875 40.4105 24.0355 41.25 23 41.25C21.9645 41.25 21.125 40.4105 21.125 39.375V35.625C21.125 34.5895 21.9645 33.75 23 33.75Z" fill="#6A6E87"/>
<path opacity="0.3" d="M23 26.25C25.0711 26.25 26.75 24.5711 26.75 22.5C26.75 20.4289 25.0711 18.75 23 18.75C20.9289 18.75 19.25 20.4289 19.25 22.5C19.25 24.5711 20.9289 26.25 23 26.25Z" fill="#6A6E87"/>
<path d="M23 31.875C28.1777 31.875 32.375 27.6777 32.375 22.5C32.375 17.3223 28.1777 13.125 23 13.125C17.8223 13.125 13.625 17.3223 13.625 22.5C13.625 27.6777 17.8223 31.875 23 31.875ZM23 35.625C15.7513 35.625 9.875 29.7487 9.875 22.5C9.875 15.2513 15.7513 9.375 23 9.375C30.2487 9.375 36.125 15.2513 36.125 22.5C36.125 29.7487 30.2487 35.625 23 35.625Z" fill="#6A6E87"/>
</svg>