<svg xmlns="http://www.w3.org/2000/svg" width="48" height="35" viewBox="0 0 48 35" fill="none">
  <g clip-path="url(#clip0_36_512)">
    <path d="M23.732 23.1333C16.4113 23.1333 10.2344 24.3295 10.2344 28.9464C10.2344 33.5651 16.4512 34.7193 23.732 34.7193C31.0527 34.7193 37.2296 33.5231 37.2296 28.9062C37.2296 24.2875 31.0128 23.1333 23.732 23.1333Z" fill="white"/>
    <path opacity="0.4" d="M23.7327 18.7347C28.6898 18.7347 32.6646 14.737 32.6646 9.75138C32.6646 4.76384 28.6898 0.768066 23.7327 0.768066C18.7756 0.768066 14.8008 4.76384 14.8008 9.75138C14.8008 14.737 18.7756 18.7347 23.7327 18.7347Z" fill="white"/>
    <path opacity="0.4" d="M43.126 11.8433C44.4085 6.79841 40.6484 2.26758 35.8604 2.26758C35.3398 2.26758 34.842 2.32491 34.3556 2.42236C34.291 2.43765 34.2188 2.47014 34.1808 2.52747C34.1371 2.60008 34.1694 2.69754 34.2169 2.7606C35.6552 4.79002 36.4817 7.26086 36.4817 9.91324C36.4817 12.4548 35.7236 14.8243 34.3936 16.7907C34.2568 16.9933 34.3784 17.2665 34.6197 17.3086C34.9541 17.3678 35.2961 17.3984 35.6457 17.4079C39.1322 17.4997 42.2615 15.2428 43.126 11.8433Z" fill="white"/>
    <path d="M46.7782 23.7214C46.1398 22.3531 44.5989 21.4149 42.2562 20.9543C41.1504 20.683 38.1579 20.3008 35.3744 20.3524C35.3326 20.3581 35.3098 20.3868 35.306 20.4059C35.3003 20.4326 35.3117 20.4785 35.3668 20.5072C36.6531 21.1473 41.6254 23.9316 41.0003 29.8039C40.9737 30.058 41.177 30.2778 41.4297 30.2396C42.6533 30.0638 45.8016 29.3835 46.7782 27.2642C47.3178 26.1444 47.3178 24.8431 46.7782 23.7214Z" fill="white"/>
    <path opacity="0.4" d="M13.3274 2.42285C12.8429 2.32348 12.3432 2.26807 11.8226 2.26807C7.03465 2.26807 3.27455 6.7989 4.55895 11.8438C5.42155 15.2433 8.55085 17.5001 12.0373 17.4084C12.3869 17.3989 12.7308 17.3664 13.0633 17.3091C13.3046 17.267 13.4262 16.9937 13.2894 16.7912C11.9594 14.8229 11.2013 12.4553 11.2013 9.91373C11.2013 7.25943 12.0297 4.78859 13.468 2.76109C13.5136 2.69803 13.5478 2.60057 13.5022 2.52795C13.4642 2.46871 13.3939 2.43814 13.3274 2.42285Z" fill="white"/>
    <path d="M5.42623 20.9532C3.08353 21.4138 1.54453 22.352 0.906125 23.7203C0.364625 24.842 0.364625 26.1433 0.906125 27.2651C1.88273 29.3824 5.03103 30.0646 6.25463 30.2385C6.50733 30.2767 6.70873 30.0589 6.68213 29.8028C6.05703 23.9324 11.0293 21.1482 12.3175 20.508C12.3707 20.4774 12.3821 20.4335 12.3764 20.4048C12.3726 20.3857 12.3517 20.357 12.3099 20.3532C9.52453 20.2997 6.53393 20.6819 5.42623 20.9532Z" fill="white"/>
  </g>
  <defs>
    <clipPath id="clip0_36_512">
      <rect width="47" height="35" fill="white" transform="translate(0.5)"/>
    </clipPath>
  </defs>
</svg>