<svg width="40" height="24" viewBox="0 0 40 24" fill="none" xmlns="http://www.w3.org/2000/svg">
<path d="M22.536 0.919998H22.088C21.448 0.919998 20.84 1.10133 20.264 1.464C19.7093 1.80533 19.24 2.24267 18.856 2.776L12.552 13.016V20.664C12.552 21.2187 12.744 21.6987 13.128 22.104C13.5333 22.488 14.024 22.68 14.6 22.68H14.984V23H8.008V22.68H8.424C8.97867 22.68 9.448 22.488 9.832 22.104C10.2373 21.72 10.4507 21.2507 10.472 20.696V12.984L4.36 2.776C4.04 2.264 3.58133 1.82667 2.984 1.464C2.408 1.10133 1.8 0.919998 1.16 0.919998H0.712V0.599998H8.584V0.919998H8.168C7.69867 0.919998 7.336 1.13333 7.08 1.56C6.952 1.79467 6.888 2.02933 6.888 2.264C6.888 2.47733 6.94133 2.69067 7.048 2.904L11.848 11.864L16.968 2.872C17.0747 2.65867 17.128 2.44533 17.128 2.232C17.128 2.01867 17.0533 1.79467 16.904 1.56C16.648 1.13333 16.2853 0.919998 15.816 0.919998H15.432V0.599998H22.536V0.919998ZM22.9882 21.688C22.9242 21.3893 22.8922 20.8133 22.8922 19.96C22.8922 19.1067 23.0522 18.2 23.3722 17.24H23.6602C23.6389 17.4747 23.6282 17.7093 23.6282 17.944C23.6282 19.2453 24.0229 20.3333 24.8122 21.208C25.6016 22.0613 26.6469 22.488 27.9482 22.488C29.2922 22.488 30.3909 22.0827 31.2442 21.272C32.1189 20.4613 32.5562 19.448 32.5562 18.232C32.5562 16.9947 32.1402 15.992 31.3082 15.224L25.1642 9.528C24.0122 8.46133 23.4362 7.17067 23.4362 5.656C23.4362 4.14133 23.9376 2.85067 24.9402 1.784C25.9642 0.695999 27.3402 0.151999 29.0682 0.151999C29.8789 0.151999 30.7962 0.258665 31.8202 0.471998H33.0682V4.408H32.7802C32.7802 3.40533 32.4282 2.60533 31.7242 2.008C31.0416 1.41067 30.1562 1.112 29.0682 1.112C27.9802 1.112 27.0629 1.47467 26.3162 2.2C25.5909 2.92533 25.2282 3.832 25.2282 4.92C25.2282 6.008 25.6549 6.94667 26.5082 7.736L32.8123 13.56C33.8789 14.5413 34.4122 15.8853 34.4122 17.592C34.4122 19.2987 33.8682 20.7067 32.7802 21.816C31.6922 22.904 30.2416 23.448 28.4282 23.448C27.4896 23.448 26.4869 23.2987 25.4202 23C24.3749 22.7227 23.5642 22.2853 22.9882 21.688ZM39.0077 22.712C38.7304 22.9893 38.3891 23.128 37.9837 23.128C37.5784 23.128 37.2371 22.9893 36.9597 22.712C36.6824 22.4347 36.5437 22.0933 36.5437 21.688C36.5437 21.2827 36.6824 20.9413 36.9597 20.664C37.2371 20.3867 37.5784 20.248 37.9837 20.248C38.3891 20.248 38.7304 20.3867 39.0077 20.664C39.2851 20.9413 39.4237 21.2827 39.4237 21.688C39.4237 22.0933 39.2851 22.4347 39.0077 22.712Z" fill="black"/>
</svg>
